<?xml version="1.0" standalone="no"?>
<!DOCTYPE svg PUBLIC "-//W3C//DTD SVG 20010904//EN"
 "http://www.w3.org/TR/2001/REC-SVG-20010904/DTD/svg10.dtd">
<svg version="1.0" xmlns="http://www.w3.org/2000/svg"
 width="1024.000000pt" height="1024.000000pt" viewBox="0 0 1024.000000 1024.000000"
 preserveAspectRatio="xMidYMid meet">
<metadata>
Created by potrace 1.14, written by Peter Selinger 2001-2017
</metadata>
<g transform="translate(0.000000,1024.000000) scale(0.100000,-0.100000)"
fill="#000000" stroke="none">
<path d="M2957 9603 c-14 -14 -17 -15 -17 -3 0 13 -2 13 -10 0 -8 -13 -10 -13
-10 0 0 11 -3 11 -12 2 -15 -15 -31 -16 -22 0 4 6 3 8 -3 5 -11 -7 -11 -43 0
-53 4 -4 0 -18 -8 -30 -12 -18 -12 -22 -2 -18 8 3 14 -2 14 -11 0 -8 -3 -15
-7 -15 -4 0 -7 -7 -7 -15 0 -8 7 -15 16 -15 11 0 10 -3 -5 -15 -14 -11 -15
-14 -4 -15 13 0 13 -1 0 -10 -13 -9 -13 -10 0 -10 13 0 13 -1 0 -10 -11 -7
-11 -10 -2 -10 8 0 10 -5 5 -12 -11 -18 -11 -30 -1 -50 6 -12 5 -18 -4 -18
-10 0 -10 -2 0 -9 10 -6 9 -10 -7 -14 -14 -3 -19 -1 -14 6 4 7 -1 6 -10 -2
-14 -11 -17 -11 -17 0 0 11 -2 11 -10 -1 -9 -13 -10 -13 -10 0 0 13 -1 13 -10
0 -9 -13 -10 -13 -10 0 0 13 -1 13 -10 0 -8 -12 -10 -12 -10 -1 0 11 -3 11
-15 1 -14 -12 -20 -7 -15 15 1 5 -8 1 -19 -9 -16 -14 -21 -16 -21 -5 0 12 -2
12 -9 0 -7 -11 -9 -11 -14 0 -5 12 -6 12 -6 0 -1 -11 -4 -11 -16 -1 -12 10
-15 9 -16 -6 0 -15 -2 -16 -7 -4 -9 19 -32 24 -32 8 0 -9 -4 -8 -10 2 -5 8
-10 10 -10 4 0 -6 -7 -11 -15 -11 -8 0 -15 5 -15 11 0 6 -5 4 -10 -4 -8 -12
-10 -12 -10 -1 0 11 -3 11 -15 1 -14 -12 -20 -7 -15 15 1 5 -8 1 -19 -9 -16
-14 -21 -16 -21 -5 0 11 -2 11 -10 -1 -8 -12 -10 -12 -10 -1 0 11 -3 11 -15 1
-12 -10 -15 -10 -16 1 0 8 -4 5 -9 -6 -6 -15 -9 -16 -9 -4 -1 17 -31 22 -31 5
0 -6 -5 -4 -10 4 -5 8 -10 10 -10 4 0 -6 -7 -11 -15 -11 -8 0 -15 5 -15 11 0
6 -5 4 -10 -4 -8 -12 -10 -12 -10 -1 0 11 -3 11 -17 0 -11 -9 -14 -10 -9 -2 5
9 2 11 -8 7 -9 -3 -13 -10 -10 -15 3 -5 0 -9 -5 -9 -13 0 -10 -22 4 -32 6 -5
4 -8 -5 -8 -13 0 -13 -1 0 -10 12 -8 12 -10 1 -10 -11 0 -11 -3 -1 -15 10 -12
10 -15 -1 -15 -12 0 -12 -2 0 -9 11 -7 11 -9 0 -14 -12 -4 -12 -6 0 -6 11 -1
10 -6 -4 -21 -14 -16 -15 -19 -4 -15 10 4 16 0 16 -10 0 -8 -3 -15 -7 -15 -4
0 -7 -7 -7 -15 0 -8 7 -15 16 -15 11 0 10 -3 -5 -15 -14 -11 -15 -14 -4 -15
13 0 13 -1 0 -10 -13 -9 -13 -10 0 -10 13 0 13 -1 0 -10 -12 -8 -12 -10 -1
-10 11 0 9 -5 -5 -21 -10 -11 -14 -20 -9 -19 22 5 27 -1 14 -17 -12 -15 -12
-16 1 -8 13 8 13 7 1 -8 -7 -9 -9 -17 -4 -17 5 0 10 -7 10 -15 0 -8 -5 -15
-11 -15 -6 0 -4 -5 4 -10 13 -9 13 -10 0 -10 -13 0 -13 -1 0 -10 8 -5 10 -10
4 -10 -6 0 -11 -7 -11 -15 0 -8 5 -15 10 -15 5 0 3 -8 -4 -17 -12 -15 -12 -16
1 -8 13 7 13 6 2 -7 -11 -14 -10 -18 5 -27 16 -9 16 -10 1 -11 -9 0 -20 -5
-23 -10 -4 -6 -3 -9 2 -8 7 3 15 -7 12 -14 -6 -21 -5 -39 2 -44 6 -4 6 -11 -1
-19 -8 -10 -8 -15 0 -20 8 -5 8 -11 -1 -21 -9 -11 -8 -14 2 -14 11 0 11 -2 -1
-10 -11 -7 -11 -10 -2 -10 8 0 10 -5 5 -12 -12 -21 -12 -39 0 -31 7 4 4 -5 -6
-20 -12 -18 -13 -25 -4 -21 8 3 14 -2 14 -11 0 -8 -3 -15 -7 -15 -4 0 -7 -7
-7 -15 0 -8 7 -15 16 -15 11 0 10 -3 -5 -15 -13 -10 -14 -14 -5 -15 11 0 11
-3 0 -17 -8 -9 -9 -14 -2 -10 13 8 12 -10 -1 -32 -7 -11 -10 -11 -17 0 -7 11
-9 11 -9 -1 0 -13 -1 -13 -10 0 -8 12 -10 12 -10 1 0 -11 -3 -11 -15 -1 -12
10 -15 9 -16 -6 0 -15 -2 -16 -7 -4 -9 19 -32 24 -32 7 0 -8 -4 -7 -10 3 -5 8
-10 10 -10 4 0 -6 -7 -11 -15 -11 -8 0 -15 5 -15 11 0 6 -5 4 -10 -4 -8 -12
-10 -12 -10 -1 0 11 -3 11 -15 1 -14 -12 -20 -7 -15 15 1 5 -8 1 -19 -9 -16
-14 -21 -16 -21 -5 0 11 -2 11 -10 -1 -7 -10 -10 -11 -10 -2 0 9 -7 8 -26 -4
-19 -13 -22 -19 -12 -25 10 -7 10 -9 -2 -9 -13 0 -13 -1 0 -10 8 -5 10 -10 4
-10 -6 0 -11 -7 -11 -15 0 -8 5 -15 10 -15 5 0 3 -8 -4 -17 -12 -15 -12 -16 1
-8 13 7 13 6 2 -7 -11 -14 -10 -18 5 -27 16 -9 16 -10 1 -11 -9 0 -20 -5 -23
-10 -4 -6 -3 -9 2 -8 7 3 15 -7 12 -14 -6 -21 -5 -39 2 -44 6 -3 5 -12 -3 -22
-11 -13 -11 -14 2 -7 13 8 13 7 1 -8 -11 -14 -11 -17 0 -17 11 0 11 -2 -1 -10
-13 -9 -13 -10 0 -10 13 0 13 -1 0 -10 -12 -8 -12 -10 -1 -10 11 0 11 -3 0
-17 -12 -15 -12 -16 1 -8 13 7 13 6 2 -7 -11 -14 -10 -18 5 -27 16 -9 16 -10
1 -11 -9 0 -20 -5 -23 -10 -4 -6 -3 -9 2 -8 7 3 15 -7 12 -14 -6 -22 -5 -39 3
-44 6 -4 5 -10 -3 -15 -12 -7 -12 -9 0 -9 11 0 10 -5 -4 -20 -17 -19 -17 -20
-2 -14 19 7 20 -15 2 -28 -6 -5 -4 -8 5 -8 13 0 13 -1 0 -10 -12 -8 -12 -10
-1 -10 11 0 11 -3 1 -15 -10 -12 -9 -16 4 -21 9 -3 13 -11 10 -16 -4 -6 -9 -6
-14 2 -5 8 -9 7 -13 -4 -4 -9 -3 -15 1 -15 20 3 23 -3 11 -18 -12 -15 -12 -16
1 -8 13 8 13 7 1 -8 -7 -9 -9 -17 -4 -17 5 0 10 -7 10 -15 0 -8 -5 -15 -11
-15 -6 0 -4 -5 4 -10 13 -9 13 -10 0 -10 -13 0 -13 -1 0 -10 8 -5 10 -10 4
-10 -6 0 -11 -7 -11 -15 0 -8 5 -15 10 -15 5 0 3 -8 -4 -17 -12 -15 -12 -16 1
-8 13 7 13 6 2 -7 -11 -14 -10 -18 5 -27 16 -9 16 -10 1 -11 -9 0 -20 -5 -23
-10 -4 -6 -3 -9 2 -8 7 3 15 -7 12 -14 -6 -21 -5 -39 2 -44 6 -3 5 -12 -3 -22
-11 -13 -11 -14 2 -7 13 8 13 7 1 -8 -11 -14 -11 -17 0 -17 11 0 11 -2 -1 -10
-13 -9 -13 -10 0 -10 13 0 13 -1 0 -10 -12 -8 -12 -10 -1 -10 11 0 11 -3 0
-17 -12 -15 -12 -16 1 -8 13 7 13 6 2 -7 -11 -14 -10 -18 5 -27 16 -9 16 -10
1 -11 -9 0 -20 -5 -24 -12 -4 -6 -3 -8 4 -4 6 3 13 2 16 -3 4 -5 2 -12 -3 -15
-10 -7 -9 -25 2 -43 5 -8 3 -13 -5 -13 -9 0 -9 -3 2 -10 12 -8 12 -10 1 -10
-11 0 -11 -3 0 -17 12 -15 12 -16 -1 -8 -12 6 -13 5 -3 -5 10 -11 9 -16 -5
-27 -14 -11 -14 -12 -1 -8 10 4 16 0 16 -10 0 -8 -3 -15 -7 -15 -4 0 -7 -7 -7
-15 0 -8 7 -15 16 -15 13 0 14 -2 2 -9 -17 -11 -22 -80 -8 -98 6 -9 5 -13 -3
-13 -9 0 -9 -4 1 -17 12 -15 12 -16 -1 -8 -12 6 -13 5 -3 -5 10 -11 9 -16 -5
-27 -14 -11 -14 -12 -1 -8 10 4 16 0 16 -10 0 -8 -3 -15 -7 -15 -4 0 -7 -7 -7
-15 0 -8 7 -15 16 -15 13 0 14 -2 2 -9 -17 -11 -22 -80 -8 -98 6 -9 5 -13 -3
-13 -9 0 -9 -4 1 -17 12 -15 12 -16 -1 -8 -12 6 -13 5 -3 -5 10 -11 9 -16 -5
-27 -14 -11 -14 -12 -1 -8 10 4 16 0 16 -10 0 -8 -3 -15 -7 -15 -4 0 -7 -7 -7
-15 0 -8 7 -15 16 -15 11 0 10 -3 -5 -15 -14 -11 -15 -14 -4 -15 13 0 13 -1 0
-10 -13 -9 -13 -10 0 -10 13 0 13 -1 0 -10 -10 -6 -11 -10 -2 -10 14 0 12 -21
-3 -32 -6 -5 -4 -8 5 -8 13 0 13 -1 0 -10 -13 -9 -13 -10 0 -10 13 0 13 -1 0
-10 -13 -9 -13 -10 0 -10 13 0 13 -1 0 -10 -13 -9 -13 -10 0 -10 13 0 13 -1 0
-10 -13 -9 -13 -10 0 -10 13 0 13 -1 0 -10 -13 -9 -13 -10 0 -10 13 0 13 -1 0
-10 -13 -9 -13 -10 0 -10 13 0 13 -1 0 -10 -13 -9 -13 -10 0 -10 13 0 13 -1 0
-10 -13 -9 -13 -10 0 -10 13 0 13 -1 0 -10 -13 -9 -13 -10 0 -10 13 0 13 -1 0
-10 -13 -9 -13 -10 0 -10 13 0 13 -1 0 -10 -13 -9 -13 -10 0 -10 13 0 13 -1 0
-10 -13 -9 -13 -10 0 -10 13 0 13 -1 0 -10 -13 -9 -13 -10 0 -10 13 0 13 -1 0
-10 -13 -9 -13 -10 0 -10 13 0 13 -1 0 -10 -13 -9 -13 -10 0 -10 13 0 13 -1 0
-10 -13 -9 -13 -10 0 -10 13 0 13 -1 0 -10 -13 -9 -13 -10 0 -10 13 0 13 -1 0
-10 -13 -9 -13 -10 0 -10 13 0 13 -1 0 -10 -13 -9 -13 -10 0 -10 13 0 13 -1 0
-10 -13 -9 -13 -10 0 -10 13 0 13 -1 0 -10 -13 -9 -13 -10 0 -10 13 0 13 -1 0
-10 -13 -9 -13 -10 0 -10 13 0 13 -1 0 -10 -13 -9 -13 -10 0 -10 13 0 13 -1 0
-10 -13 -9 -13 -10 0 -10 13 0 13 -1 0 -10 -13 -9 -13 -10 0 -10 13 0 13 -1 0
-10 -13 -9 -13 -10 0 -10 13 0 13 -1 0 -10 -13 -9 -13 -10 0 -10 13 0 13 -1 0
-10 -13 -9 -13 -10 0 -10 13 0 13 -1 0 -10 -13 -9 -13 -10 0 -10 13 0 13 -1 0
-10 -13 -9 -13 -10 0 -10 13 0 13 -1 0 -11 -12 -8 -12 -12 -2 -16 10 -4 10 -8
1 -19 -9 -11 -8 -14 2 -14 11 0 11 -2 -1 -10 -12 -8 -12 -10 -1 -10 11 0 9 -5
-5 -22 -10 -12 -14 -18 -7 -15 14 9 28 -9 14 -18 -10 -5 -7 -36 4 -55 3 -6 0
-10 -7 -10 -9 0 -9 -3 2 -10 10 -6 11 -10 3 -10 -17 0 -12 -23 7 -32 12 -5 11
-7 -4 -7 -15 -1 -16 -4 -6 -16 10 -12 10 -15 -1 -15 -12 0 -12 -2 0 -9 11 -7
11 -9 0 -14 -12 -4 -12 -6 0 -6 11 -1 10 -6 -5 -22 -10 -11 -14 -20 -9 -19 22
5 27 -1 15 -15 -10 -12 -10 -15 1 -15 11 0 11 -2 -1 -10 -8 -5 -10 -10 -4 -10
14 0 14 -30 0 -30 -6 0 -4 -5 4 -10 10 -6 11 -10 3 -10 -17 0 -12 -23 7 -32
12 -5 11 -7 -4 -7 -15 -1 -16 -4 -6 -16 10 -12 10 -15 -1 -15 -11 0 -11 -2 1
-10 13 -9 13 -10 0 -10 -13 0 -13 -1 0 -10 13 -9 13 -10 0 -10 -12 0 -12 -2
-2 -9 15 -9 15 -20 0 -38 -6 -8 -7 -13 -1 -13 5 0 10 -7 10 -15 0 -12 -3 -12
-16 -2 -10 8 -13 9 -8 0 10 -17 -13 -28 -24 -12 -7 12 -9 11 -9 -1 0 -13 -1
-13 -10 0 -9 13 -10 13 -10 0 0 -13 -1 -13 -10 0 -9 13 -10 13 -10 0 0 -13 -1
-13 -10 0 -9 13 -10 13 -10 0 0 -13 -1 -13 -10 0 -9 13 -10 13 -10 0 0 -13 -1
-13 -10 0 -9 13 -10 13 -10 0 0 -13 -1 -13 -10 0 -9 13 -10 13 -10 0 0 -13 -1
-13 -10 0 -7 11 -10 11 -10 2 0 -8 -5 -10 -12 -5 -17 10 -59 12 -53 2 6 -9
-15 -6 -32 4 -12 8 -17 2 -14 -16 1 -5 -3 -6 -8 -3 -5 4 -12 2 -16 -4 -3 -5 0
-10 7 -10 8 0 9 -3 3 -8 -19 -13 -17 -35 2 -28 17 6 17 5 0 -8 -13 -10 -15
-16 -7 -21 9 -6 9 -10 -1 -16 -11 -7 -11 -9 1 -9 13 0 13 -1 0 -10 -12 -8 -12
-10 -1 -10 11 0 9 -5 -5 -21 -10 -11 -14 -20 -9 -19 22 5 27 -1 15 -15 -10
-12 -10 -15 1 -15 11 0 11 -2 -1 -10 -13 -9 -13 -10 0 -10 13 0 13 -1 0 -10
-13 -9 -13 -10 0 -10 13 0 13 -1 0 -10 -12 -8 -12 -10 -1 -10 11 0 11 -3 0
-17 -8 -9 -9 -14 -2 -10 7 5 9 0 6 -14 -4 -16 -8 -17 -14 -7 -7 10 -9 10 -9 0
0 -10 -5 -10 -22 -1 -13 7 -23 13 -24 13 0 1 -8 -5 -17 -13 -14 -11 -17 -11
-17 0 0 11 -2 11 -10 -1 -9 -13 -10 -13 -10 0 0 13 -1 13 -10 0 -9 -13 -10
-13 -10 0 -1 11 -4 10 -15 -4 -12 -15 -15 -16 -15 -5 0 9 -7 16 -15 16 -8 0
-15 -3 -15 -7 0 -4 -7 -7 -15 -7 -9 0 -14 6 -11 14 4 10 -1 9 -18 -3 -13 -8
-27 -11 -30 -6 -6 11 -43 9 -53 -3 -5 -4 -2 -5 5 -1 15 9 16 -6 0 -22 -9 -9
-9 -12 3 -12 12 0 12 -2 -1 -10 -12 -8 -12 -10 -1 -10 11 0 9 -5 -5 -21 -10
-11 -14 -20 -9 -19 22 5 27 -1 15 -15 -10 -12 -10 -15 1 -15 11 0 11 -2 -1
-10 -12 -8 -12 -10 -1 -10 10 0 11 -3 2 -14 -9 -10 -9 -16 -1 -21 8 -5 5 -12
-7 -22 -10 -8 -13 -12 -8 -10 6 3 16 -1 23 -9 11 -12 10 -14 -4 -14 -13 0 -14
-3 -5 -14 7 -9 8 -17 2 -20 -16 -10 -5 -41 14 -38 9 2 15 -1 12 -5 -3 -5 7 -9
23 -8 15 0 26 3 23 7 -2 5 1 8 6 8 6 0 11 -6 11 -12 0 -9 4 -8 10 2 5 8 10 10
10 4 0 -6 7 -11 15 -11 8 0 12 4 9 8 -2 4 5 7 16 6 11 -1 20 -5 20 -10 0 -5 8
-3 17 4 15 12 16 12 8 -1 -8 -13 -7 -13 8 -1 16 13 22 8 17 -14 -1 -5 8 -1 19
9 13 12 21 14 21 7 0 -7 5 -9 13 -4 18 11 38 13 31 2 -3 -5 2 -9 10 -9 17 0
17 -20 1 -32 -6 -5 -5 -8 3 -8 8 0 10 -5 6 -12 -14 -22 -11 -48 5 -49 12 0 11
-3 -4 -9 -13 -6 -15 -9 -5 -9 9 -1 11 -4 5 -9 -14 -10 -17 -32 -4 -32 8 0 7
-6 -2 -17 -12 -15 -12 -16 1 -8 13 7 13 6 2 -7 -11 -14 -10 -18 5 -27 16 -9
16 -10 1 -11 -9 0 -20 -5 -23 -10 -4 -6 -2 -9 3 -8 8 3 14 -5 11 -14 -6 -21
-5 -39 2 -44 6 -4 6 -11 -1 -19 -8 -10 -8 -15 0 -20 8 -5 8 -11 -1 -21 -9 -11
-8 -14 2 -14 11 0 11 -2 -1 -10 -11 -7 -11 -10 -2 -10 8 0 10 -5 5 -12 -12
-21 -12 -39 0 -31 7 4 4 -5 -6 -20 -12 -18 -13 -25 -4 -21 8 3 14 -2 14 -11 0
-8 -3 -15 -7 -15 -4 0 -7 -7 -7 -15 0 -8 7 -15 16 -15 11 0 10 -3 -5 -15 -14
-11 -15 -14 -4 -15 9 0 11 -3 5 -8 -14 -10 -17 -32 -4 -32 5 0 8 -4 4 -9 -3
-5 0 -13 6 -17 8 -4 9 -3 5 4 -4 7 -2 12 3 12 6 0 11 -6 11 -12 0 -9 4 -8 10
2 5 8 10 10 10 4 0 -6 7 -11 15 -11 8 0 12 4 9 8 -2 4 5 7 16 6 14 -1 19 -6
15 -16 -5 -12 -2 -11 13 2 22 20 36 22 26 5 -5 -9 -2 -9 9 1 13 10 17 10 17 1
0 -9 4 -9 17 1 15 12 16 12 8 -1 -8 -13 -7 -13 8 -1 16 13 22 8 17 -14 -1 -5
8 -1 19 9 13 12 21 14 21 7 0 -7 5 -9 13 -4 18 11 38 13 31 2 -3 -5 2 -9 10
-9 17 0 17 -20 1 -32 -6 -5 -5 -8 3 -8 8 0 10 -5 6 -12 -14 -22 -11 -48 5 -49
12 0 11 -3 -4 -9 -13 -6 -15 -9 -5 -9 9 -1 11 -4 5 -9 -14 -10 -17 -32 -4 -32
8 0 7 -6 -2 -17 -12 -15 -12 -16 1 -8 13 7 13 6 2 -7 -11 -14 -10 -18 5 -27
16 -9 16 -10 1 -11 -9 0 -20 -5 -23 -10 -4 -6 -2 -9 3 -8 8 3 14 -5 11 -14 -6
-21 -5 -39 2 -44 6 -3 5 -12 -3 -22 -11 -13 -11 -14 2 -7 13 8 13 7 1 -8 -11
-14 -11 -17 0 -17 11 0 11 -2 -1 -10 -13 -9 -13 -10 0 -10 13 0 13 -1 0 -10
-12 -8 -12 -10 -1 -10 11 0 11 -3 0 -17 -12 -15 -12 -16 1 -8 13 7 13 6 2 -7
-11 -14 -10 -18 5 -27 16 -9 16 -10 1 -11 -9 0 -20 -5 -24 -12 -4 -6 -3 -8 4
-4 6 3 13 2 16 -3 4 -5 2 -12 -3 -15 -10 -7 -9 -25 2 -44 5 -7 3 -12 -5 -12
-9 0 -9 -3 2 -10 12 -8 12 -10 1 -10 -11 0 -11 -3 0 -17 12 -15 12 -16 -1 -8
-12 6 -13 5 -3 -5 10 -11 9 -16 -5 -27 -14 -11 -14 -12 -1 -8 10 4 16 0 16
-10 0 -8 -3 -15 -7 -15 -4 0 -7 -7 -7 -15 0 -8 7 -15 16 -15 13 0 14 -2 2 -9
-17 -11 -22 -80 -8 -98 6 -9 5 -13 -3 -13 -9 0 -9 -4 1 -17 12 -15 12 -16 -1
-8 -12 6 -13 5 -3 -5 10 -11 9 -16 -5 -27 -14 -11 -14 -12 -1 -8 10 4 16 0 16
-10 0 -8 -3 -15 -7 -15 -4 0 -7 -7 -7 -15 0 -8 7 -15 16 -15 13 0 14 -2 2 -9
-17 -11 -22 -80 -8 -99 6 -8 5 -12 -3 -12 -9 0 -9 -4 1 -17 12 -15 12 -16 -1
-8 -12 6 -13 5 -3 -5 10 -11 9 -16 -5 -27 -14 -11 -14 -12 -1 -8 10 4 16 0 16
-10 0 -8 -3 -15 -7 -15 -4 0 -7 -7 -7 -15 0 -8 7 -15 16 -15 11 0 10 -3 -5
-15 -14 -11 -15 -14 -4 -15 13 0 13 -1 0 -10 -13 -9 -13 -10 0 -10 13 0 13 -1
0 -10 -12 -8 -12 -10 -1 -10 11 0 11 -3 1 -15 -9 -11 -9 -15 -1 -15 7 0 9 -5
4 -12 -10 -17 -13 -39 -5 -34 4 2 7 -11 7 -30 0 -19 -4 -34 -10 -34 -5 0 -3
-5 5 -10 13 -9 13 -10 0 -10 -12 0 -12 -2 -1 -9 9 -6 10 -11 2 -15 -8 -5 -8
-13 0 -28 7 -13 7 -18 1 -14 -6 3 -14 1 -18 -5 -4 -7 -3 -9 4 -5 6 3 13 2 16
-3 4 -5 3 -12 -2 -15 -5 -3 -8 -22 -7 -43 l1 -38 329 -5 c182 -3 323 -7 315
-8 -13 -2 -13 -3 0 -12 13 -9 13 -10 0 -10 -13 0 -13 -1 0 -10 13 -9 13 -10 0
-10 -13 0 -13 -1 0 -10 13 -9 13 -10 0 -10 -13 0 -13 -1 0 -10 13 -9 13 -10 0
-10 -13 0 -13 -1 0 -10 13 -9 13 -10 0 -10 -13 0 -13 -1 0 -10 13 -9 13 -10 0
-10 -13 0 -13 -1 0 -10 13 -9 13 -10 0 -10 -13 0 -13 -1 0 -10 13 -9 13 -10 0
-10 -13 0 -13 -1 0 -10 13 -9 13 -10 0 -10 -13 0 -13 -1 0 -10 13 -9 13 -10 0
-10 -13 0 -13 -1 0 -10 13 -9 13 -10 0 -10 -13 0 -13 -1 0 -10 13 -9 13 -10 0
-10 -13 0 -13 -1 0 -10 13 -9 13 -10 0 -10 -12 0 -13 -2 -1 -9 16 -11 5 -34
-12 -24 -9 5 -8 2 0 -8 10 -13 10 -16 -2 -16 -8 0 -15 5 -15 10 0 5 -7 3 -17
-4 -19 -16 -23 -16 -34 3 -7 10 -9 10 -9 -2 0 -13 -1 -13 -10 0 -9 13 -10 13
-10 0 0 -13 -1 -13 -10 0 -8 12 -10 12 -10 1 0 -11 -3 -11 -15 -1 -12 10 -15
9 -16 -6 0 -15 -2 -16 -7 -4 -9 19 -32 24 -32 8 0 -9 -4 -8 -10 2 -5 8 -10 10
-10 4 0 -14 -30 -14 -30 0 0 6 -5 4 -10 -4 -8 -12 -10 -12 -10 -1 0 11 -3 11
-15 1 -14 -12 -20 -7 -15 15 1 5 -8 1 -19 -9 -16 -14 -21 -16 -21 -5 0 12 -2
12 -9 0 -7 -11 -9 -11 -14 0 -5 12 -6 12 -6 0 -1 -11 -4 -11 -16 -1 -12 10
-15 9 -16 -6 0 -15 -2 -16 -7 -4 -9 19 -32 24 -32 8 0 -9 -4 -8 -10 2 -7 11
-10 11 -10 2 0 -7 -4 -10 -10 -7 -19 11 -50 14 -55 4 -9 -14 -27 0 -18 14 3 7
-3 3 -15 -7 -17 -14 -22 -16 -22 -5 0 11 -2 11 -10 -1 -8 -12 -10 -12 -10 -1
0 10 -3 11 -14 2 -11 -9 -15 -9 -19 1 -4 10 -8 10 -16 -2 -10 -13 -11 -13 -11
0 0 13 -1 13 -10 0 -9 -13 -10 -13 -10 0 0 13 -1 13 -10 0 -9 -13 -10 -13 -10
0 0 13 -1 13 -10 0 -9 -13 -10 -13 -10 0 0 13 -1 13 -10 0 -9 -13 -10 -13 -10
0 0 13 -1 13 -10 0 -9 -13 -10 -13 -10 0 0 13 -1 13 -10 0 -9 -13 -10 -13 -10
0 0 13 -1 13 -10 0 -9 -13 -10 -13 -10 0 0 13 -1 13 -10 0 -9 -13 -10 -13 -10
0 0 13 -1 13 -10 0 -9 -13 -10 -13 -10 0 0 13 -1 13 -10 0 -9 -13 -10 -13 -10
0 0 13 -1 13 -10 0 -9 -13 -10 -13 -10 0 0 13 -1 13 -10 0 -9 -13 -10 -13 -10
0 0 13 -1 13 -10 0 -9 -13 -10 -13 -10 0 0 13 -1 13 -10 0 -9 -13 -10 -13 -10
0 0 13 -1 13 -10 0 -9 -13 -10 -13 -10 0 0 13 -1 13 -10 0 -9 -13 -10 -13 -10
0 0 13 -1 13 -10 0 -9 -13 -10 -13 -10 0 0 13 -1 13 -10 0 -9 -13 -10 -13 -10
0 0 13 -1 13 -10 0 -9 -13 -10 -13 -10 0 0 13 -1 13 -10 0 -9 -13 -10 -13 -10
0 0 13 -1 13 -10 0 -9 -13 -10 -13 -10 0 0 13 -1 13 -10 0 -9 -13 -10 -13 -10
0 0 13 -1 13 -10 0 -9 -13 -10 -13 -10 0 0 12 -2 13 -9 1 -7 -11 -9 -11 -14 0
-4 11 -6 11 -6 1 -1 -8 -6 -10 -13 -5 -17 10 -59 12 -53 2 6 -9 -15 -6 -32 4
-13 8 -17 2 -14 -17 1 -5 -4 -4 -11 2 -11 8 -14 7 -14 -8 0 -10 5 -16 11 -12
5 3 4 -2 -4 -11 -13 -16 -9 -21 14 -18 6 1 -1 -8 -15 -19 -14 -11 -20 -19 -15
-18 8 3 17 -6 14 -14 -6 -21 -5 -39 2 -44 6 -3 5 -12 -3 -22 -11 -13 -11 -14
2 -7 13 8 13 7 1 -8 -11 -14 -11 -17 0 -17 11 0 11 -2 -1 -10 -13 -9 -13 -10
0 -10 13 0 13 -1 0 -10 -12 -8 -12 -10 -1 -10 11 0 11 -3 0 -17 -12 -15 -12
-16 1 -8 13 7 13 6 2 -7 -11 -14 -10 -18 5 -27 16 -9 16 -10 1 -11 -9 0 -20
-5 -23 -10 -4 -6 -3 -9 2 -8 7 3 15 -7 12 -14 -6 -21 -5 -39 2 -44 6 -3 5 -12
-3 -22 -11 -13 -11 -14 2 -7 13 8 13 7 1 -8 -11 -14 -11 -17 0 -17 11 0 11 -2
-1 -10 -13 -9 -13 -10 0 -10 13 0 13 -1 0 -10 -12 -8 -12 -10 -1 -10 11 0 11
-3 0 -17 -12 -15 -12 -16 1 -8 13 7 13 6 2 -7 -11 -14 -10 -18 5 -27 16 -9 16
-10 1 -11 -9 0 -20 -5 -23 -10 -4 -6 -3 -9 2 -8 7 3 15 -7 12 -14 -6 -21 -5
-39 2 -44 6 -4 6 -11 -1 -19 -8 -10 -8 -15 0 -20 8 -5 8 -11 -1 -21 -9 -11 -8
-14 2 -14 11 0 11 -2 -1 -10 -11 -7 -11 -10 -2 -10 8 0 10 -5 5 -12 -12 -21
-12 -39 0 -31 7 4 4 -5 -6 -20 -12 -18 -13 -25 -4 -21 8 3 14 -2 14 -11 0 -8
-3 -15 -7 -15 -4 0 -7 -7 -7 -15 0 -8 7 -15 16 -15 13 0 14 -2 2 -9 -17 -11
-22 -80 -8 -98 6 -9 5 -13 -3 -13 -9 0 -9 -4 1 -17 12 -15 12 -16 -1 -8 -12 6
-13 5 -3 -5 10 -11 9 -16 -5 -27 -14 -11 -14 -12 -1 -8 10 4 16 0 16 -10 0 -8
-3 -15 -7 -15 -4 0 -7 -7 -7 -15 0 -8 7 -15 16 -15 13 0 14 -2 2 -9 -17 -11
-22 -80 -8 -99 6 -8 5 -12 -3 -12 -9 0 -9 -4 1 -17 12 -15 12 -16 -1 -8 -12 6
-13 5 -3 -5 10 -11 9 -16 -5 -27 -14 -11 -14 -12 -1 -8 10 4 16 0 16 -10 0 -8
-3 -15 -7 -15 -4 0 -7 -7 -7 -15 0 -8 7 -15 16 -15 13 0 14 -2 2 -9 -17 -11
-22 -80 -8 -98 6 -9 5 -13 -3 -13 -9 0 -9 -4 1 -17 12 -15 12 -16 -1 -8 -12 6
-13 5 -3 -5 10 -11 9 -16 -5 -27 -14 -11 -14 -12 -1 -8 10 4 16 0 16 -10 0 -8
-3 -15 -7 -15 -4 0 -7 -7 -7 -15 0 -8 7 -15 16 -15 13 0 14 -2 2 -9 -17 -11
-22 -80 -8 -98 6 -9 5 -13 -3 -13 -9 0 -9 -4 1 -17 12 -15 12 -16 -1 -8 -12 6
-13 5 -3 -5 10 -11 9 -16 -5 -27 -14 -11 -14 -12 -1 -8 10 4 16 0 16 -10 0 -8
-3 -15 -7 -15 -4 0 -7 -7 -7 -15 0 -8 7 -15 16 -15 11 0 10 -3 -5 -15 -14 -11
-15 -14 -4 -15 13 0 13 -1 0 -10 -13 -9 -13 -10 0 -10 13 0 13 -1 0 -10 -11
-7 -11 -10 -2 -10 7 0 10 -4 7 -10 -4 -7 1279 -10 3842 -9 2116 0 3842 3 3835
6 -6 2 -9 10 -5 16 10 16 13 38 4 33 -11 -7 -7 58 4 66 6 5 4 8 -5 8 -13 0
-13 1 0 10 8 5 10 10 4 10 -6 0 -11 7 -11 15 0 8 4 15 9 15 5 0 6 6 1 13 -11
17 -13 38 -3 32 10 -6 8 15 -3 33 -5 7 -3 12 5 12 10 0 10 2 -1 9 -11 7 -11 9
0 14 12 4 12 6 0 6 -11 1 -10 6 4 21 14 16 15 19 4 15 -10 -4 -16 0 -16 10 0
8 3 15 7 15 4 0 7 7 7 15 0 8 -7 15 -16 15 -13 0 -14 2 -2 9 17 11 22 80 8 99
-6 8 -5 12 3 12 9 0 9 4 -1 17 -12 15 -12 16 1 8 12 -6 13 -5 3 5 -10 11 -9
16 5 27 14 11 14 12 1 8 -10 -4 -16 0 -16 10 0 8 3 15 7 15 4 0 7 7 7 15 0 8
-7 15 -16 15 -13 0 -14 2 -2 9 17 11 22 80 8 99 -6 8 -5 12 3 12 9 0 9 4 -1
17 -12 15 -12 16 1 8 12 -6 13 -5 3 5 -10 11 -9 16 5 27 14 11 14 12 1 8 -10
-4 -16 0 -16 10 0 8 3 15 7 15 4 0 7 7 7 15 0 8 -7 15 -16 15 -13 0 -14 2 -2
9 17 11 22 80 8 99 -6 8 -5 12 3 12 9 0 9 4 -1 17 -12 15 -12 16 1 8 12 -6 13
-5 3 5 -10 11 -9 16 5 27 14 11 14 12 1 8 -10 -4 -16 0 -16 10 0 8 3 15 7 15
4 0 7 7 7 15 0 8 -7 15 -16 15 -11 0 -10 3 5 15 13 10 15 14 5 15 -11 0 -10 5
5 21 10 11 14 20 9 19 -21 -5 -27 1 -16 14 9 10 9 16 1 21 -8 5 -8 11 1 21 9
11 8 14 -2 14 -11 0 -11 2 1 10 13 9 13 10 0 10 -13 0 -13 1 0 10 12 8 12 10
1 10 -11 0 -11 3 0 17 12 15 12 16 -1 8 -13 -7 -13 -6 -2 7 11 14 10 18 -5 27
-16 9 -16 10 -1 11 9 0 20 5 23 10 4 6 3 9 -2 8 -7 -3 -15 7 -12 15 6 20 5 38
-2 43 -6 3 -5 12 3 22 11 13 11 14 -2 7 -13 -8 -13 -7 -1 8 11 14 11 17 0 17
-11 0 -11 2 1 10 13 9 13 10 0 10 -13 0 -13 1 0 10 12 8 12 10 1 10 -11 0 -11
3 0 17 12 15 12 16 -1 8 -13 -7 -13 -6 -2 7 11 14 10 18 -5 27 -16 9 -16 10
-1 11 9 0 20 5 23 10 4 6 3 9 -2 8 -7 -3 -15 7 -12 15 6 20 5 38 -2 43 -6 3
-5 12 3 22 11 13 11 14 -2 7 -13 -8 -13 -7 -1 8 11 14 11 17 0 17 -11 0 -11 2
1 10 13 9 13 10 0 10 -13 0 -13 1 0 10 12 8 12 10 1 10 -11 0 -11 3 0 17 12
15 12 16 -1 8 -13 -7 -13 -6 -2 7 11 14 10 18 -5 28 -13 8 -13 10 -2 7 9 -3
16 1 16 9 0 8 -5 14 -10 14 -6 0 -6 5 0 13 15 20 9 42 -11 39 -10 -2 -16 1
-13 5 3 5 -7 9 -23 8 -15 0 -26 -3 -23 -7 2 -5 -1 -8 -6 -8 -6 0 -11 6 -11 13
0 8 -4 7 -10 -3 -8 -12 -10 -12 -10 -1 0 11 -3 11 -17 0 -15 -12 -16 -12 -8 1
7 13 6 13 -7 2 -10 -8 -19 -9 -22 -3 -7 10 -25 9 -43 -2 -12 -8 -17 -2 -14 16
1 5 -3 6 -9 2 -5 -3 -10 -14 -10 -23 -1 -15 -2 -15 -11 1 -9 15 -13 16 -27 5
-13 -11 -14 -11 -7 2 8 13 7 13 -8 1 -14 -11 -17 -11 -17 0 0 11 -2 11 -10 -1
-9 -13 -10 -13 -10 0 0 13 -1 13 -10 0 -8 -12 -10 -12 -10 -1 0 11 -3 11 -17
0 -15 -12 -16 -12 -8 1 7 13 6 13 -7 2 -10 -8 -19 -9 -22 -3 -7 10 -25 9 -43
-2 -12 -8 -17 -2 -14 16 1 5 -3 6 -9 2 -5 -3 -10 -14 -10 -23 -1 -15 -2 -15
-11 1 -9 15 -13 16 -27 5 -13 -11 -14 -11 -7 2 8 13 7 13 -8 1 -12 -9 -17 -10
-17 -2 0 7 -5 9 -12 4 -18 -11 -39 -13 -33 -3 3 5 -4 7 -16 5 -13 -3 -26 -10
-31 -17 -6 -10 -8 -9 -8 3 0 9 -7 16 -15 16 -8 0 -15 -3 -15 -7 0 -4 -7 -7
-15 -7 -10 0 -14 6 -10 16 4 13 3 13 -8 -1 -11 -14 -16 -15 -27 -5 -10 10 -11
9 -5 -3 8 -13 7 -13 -8 -1 -13 10 -17 10 -17 1 0 -8 -4 -9 -12 -3 -18 14 -83
9 -102 -7 -14 -11 -16 -11 -11 2 4 9 0 15 -10 15 -8 0 -15 -3 -15 -7 0 -4 -7
-7 -15 -7 -10 0 -14 6 -10 16 4 11 1 10 -15 -4 -15 -14 -20 -15 -20 -4 0 12
-2 12 -9 0 -7 -11 -9 -11 -14 0 -4 11 -6 11 -6 1 -1 -8 -6 -10 -13 -5 -18 11
-39 13 -33 3 6 -10 -15 -8 -32 3 -7 5 -13 4 -13 -1 0 -5 -7 -9 -15 -9 -8 0
-15 5 -15 11 0 6 -5 4 -10 -4 -9 -13 -10 -13 -10 0 0 9 -3 11 -8 5 -8 -11 -73
-15 -66 -4 5 9 -17 6 -33 -4 -8 -5 -13 -3 -13 4 0 8 -4 8 -15 -1 -12 -10 -15
-10 -15 1 0 11 -2 11 -10 -1 -9 -13 -10 -13 -10 0 0 13 -1 13 -10 0 -9 -13
-10 -13 -10 0 -1 11 -4 10 -15 -4 -12 -15 -15 -16 -15 -5 0 9 -7 16 -15 16 -8
0 -15 -3 -15 -7 0 -4 -7 -7 -15 -7 -10 0 -14 6 -10 15 4 11 2 12 -7 5 -7 -6
-30 -10 -50 -9 -22 2 -38 -2 -38 -8 0 -6 -5 -4 -10 4 -9 13 -10 13 -10 0 0
-13 -1 -13 -10 0 -5 8 -10 10 -10 4 0 -6 -7 -11 -15 -11 -8 0 -13 3 -10 5 3 3
-3 11 -13 18 -14 11 -14 13 -2 14 13 0 13 1 0 10 -13 9 -13 10 0 10 13 0 13 1
0 10 -13 9 -13 10 0 10 13 0 13 1 0 10 -13 9 -13 10 0 10 13 0 13 1 0 10 -13
9 -13 10 0 10 13 0 13 1 0 10 -13 9 -13 10 0 10 13 0 13 1 0 10 -13 9 -13 10
0 10 13 0 13 1 0 10 -13 9 -13 10 0 10 13 0 13 1 0 10 -13 9 -13 10 0 10 13 0
13 1 0 10 -13 9 -13 10 0 10 13 0 13 1 0 10 -13 9 -13 10 0 10 13 0 13 1 0 10
-13 9 -13 10 0 10 13 0 13 1 0 10 -13 9 -13 10 0 10 13 0 13 1 0 10 -13 9 -13
10 0 10 13 0 13 1 0 10 -8 5 -10 10 -4 10 7 0 15 7 18 16 5 14 4 15 -8 5 -11
-10 -14 -9 -12 1 1 7 5 19 9 26 5 7 3 12 -5 12 -9 0 -9 3 2 10 8 5 10 10 4 10
-6 0 -11 7 -11 15 0 8 5 15 11 15 6 0 4 5 -4 10 -10 6 -11 10 -2 10 16 0 11
23 -8 32 -12 5 -11 7 4 7 15 1 16 4 6 16 -10 12 -10 15 1 15 11 0 11 2 -1 10
-13 9 -13 10 0 10 13 0 13 1 0 10 -13 9 -13 10 0 10 12 0 12 2 2 9 -19 11 -19
15 -3 34 7 10 9 17 4 17 -5 0 -10 7 -10 15 0 12 3 12 16 2 10 -8 13 -9 8 0
-10 17 13 28 24 12 7 -12 9 -11 9 1 0 13 1 13 10 0 9 -13 10 -13 10 0 0 13 1
13 10 0 9 -13 10 -13 10 0 0 13 1 13 10 0 9 -13 10 -13 10 0 0 13 1 13 10 0 9
-13 10 -13 10 0 0 13 1 13 10 0 9 -13 10 -13 10 0 0 13 1 13 10 0 9 -13 10
-13 10 0 0 13 1 13 10 0 9 -13 10 -13 10 0 0 13 1 13 10 0 9 -13 10 -13 10 0
0 13 1 13 10 0 9 -13 10 -13 10 0 0 13 1 13 10 0 9 -13 10 -13 10 0 0 13 1 13
10 0 9 -13 10 -13 10 0 0 13 1 13 10 0 9 -13 10 -13 10 0 0 13 1 13 10 0 6
-10 10 -11 10 -2 0 14 21 12 32 -3 5 -6 8 -4 8 5 0 13 1 13 10 0 8 -12 10 -12
10 -1 0 11 3 11 15 1 12 -10 15 -9 16 6 0 15 2 16 7 4 9 -19 32 -24 32 -8 0 9
4 8 10 -2 5 -8 10 -10 10 -4 0 14 30 14 30 0 0 -6 5 -4 10 4 8 12 10 12 10 1
0 -11 3 -11 15 -1 14 12 20 7 15 -15 -1 -5 8 -1 19 9 16 14 21 16 21 5 0 -12
2 -12 9 0 7 11 9 11 14 0 5 -12 6 -12 6 0 1 11 4 11 16 1 12 -10 15 -9 16 6 0
15 2 16 7 4 9 -19 32 -24 32 -8 0 9 4 8 10 -2 5 -8 10 -10 10 -4 0 14 30 14
30 0 0 -6 5 -4 10 4 8 12 10 12 10 1 0 -11 3 -11 15 -1 14 12 20 7 15 -15 -1
-5 8 -1 19 9 16 14 21 16 21 5 0 -12 2 -12 9 0 7 11 9 11 14 0 5 -12 6 -12 6
0 1 11 4 11 16 1 12 -10 15 -9 16 6 0 15 2 16 7 4 9 -19 32 -24 32 -8 0 9 4 8
10 -2 5 -8 10 -10 10 -4 0 6 7 11 15 11 8 0 15 -5 15 -11 0 -6 5 -4 10 4 8 12
10 12 10 1 0 -11 3 -11 15 -1 14 12 20 7 15 -15 -1 -5 8 -1 19 9 16 14 21 16
21 5 0 -11 2 -11 10 1 8 12 10 12 10 1 0 -11 3 -11 15 -1 12 10 15 10 16 -1 0
-8 4 -5 9 6 6 15 9 16 9 4 1 -17 31 -22 31 -5 0 6 5 4 10 -4 5 -8 10 -10 10
-4 0 6 7 11 15 11 8 0 15 -5 15 -11 0 -6 5 -4 10 4 8 12 10 12 10 1 0 -11 3
-11 17 0 11 9 14 10 9 2 -5 -9 -2 -11 8 -7 9 3 13 10 10 15 -3 5 -1 9 4 9 5 0
9 7 9 15 0 8 -5 15 -11 15 -6 0 -4 5 4 10 11 7 11 10 2 10 -7 0 -10 4 -7 10
10 17 14 51 5 45 -10 -6 -8 15 3 32 5 8 3 13 -4 13 -8 0 -7 5 2 17 12 15 12
16 -1 8 -13 -7 -13 -6 -2 7 11 14 10 18 -5 27 -16 9 -16 10 -1 11 9 0 20 5 23
10 4 6 3 9 -2 8 -7 -3 -15 7 -12 15 6 20 5 38 -2 43 -6 4 -6 11 1 19 8 10 8
15 0 20 -8 5 -8 11 1 21 9 11 8 14 -2 14 -11 0 -11 2 1 10 11 7 11 10 2 10 -8
0 -10 5 -5 13 12 20 12 38 0 30 -7 -4 -4 5 6 20 12 18 13 25 4 21 -8 -3 -14 2
-14 11 0 8 3 15 7 15 4 0 7 7 7 15 0 8 -7 15 -16 15 -11 0 -10 3 5 15 14 11
15 14 4 15 -13 0 -13 1 0 10 13 9 13 10 0 10 -13 0 -13 1 0 10 8 5 10 10 4 10
-14 0 -14 30 0 30 6 0 4 5 -4 10 -13 9 -13 10 0 10 13 0 13 1 0 10 -13 9 -13
10 0 10 13 0 13 1 0 10 -13 9 -13 10 0 10 13 0 13 1 0 10 -13 9 -13 10 0 10
13 0 13 1 0 10 -13 9 -13 10 0 10 13 0 13 1 0 10 -13 9 -13 10 0 10 13 0 13 1
0 10 -13 9 -13 10 0 10 13 0 13 1 0 10 -13 9 -13 10 0 10 13 0 13 1 0 10 -13
9 -13 10 0 10 13 0 13 1 0 10 -13 9 -13 10 0 10 13 0 13 1 0 10 -13 9 -13 10
0 10 13 0 13 1 0 10 -13 9 -13 10 0 10 13 0 13 1 0 10 -13 9 -13 10 0 10 13 0
13 1 0 10 -13 9 -13 10 0 10 13 0 13 1 0 10 -8 5 -10 10 -4 10 7 0 15 7 18 16
5 14 4 15 -8 5 -11 -10 -14 -9 -12 1 1 7 5 19 9 26 5 7 3 12 -5 12 -9 0 -9 3
2 10 8 5 10 10 4 10 -6 0 -11 7 -11 15 0 8 5 15 11 15 6 0 4 5 -4 10 -10 6
-11 10 -2 10 16 0 11 23 -8 32 -12 5 -11 7 4 7 15 1 16 4 6 16 -10 12 -10 15
1 15 12 0 12 2 0 9 -11 7 -11 9 0 14 12 4 12 6 0 6 -11 1 -10 6 5 22 10 11 14
20 9 19 -22 -5 -27 1 -15 15 10 12 10 15 -1 15 -11 0 -11 2 1 10 8 5 10 10 4
10 -6 0 -11 7 -11 15 0 8 5 15 11 15 6 0 4 5 -4 10 -10 6 -11 10 -2 10 16 0
11 23 -8 32 -12 5 -11 7 4 7 15 1 16 4 6 16 -10 12 -10 15 1 15 12 0 12 2 0 9
-11 7 -11 9 0 14 12 4 12 6 0 6 -11 1 -10 6 5 22 10 11 14 20 9 19 -22 -5 -27
1 -15 15 10 12 10 15 -1 15 -11 0 -11 2 1 10 13 9 13 10 0 10 -13 0 -13 1 0
10 13 9 13 10 0 10 -13 0 -13 1 0 10 11 7 11 10 2 10 -8 0 -10 5 -5 13 14 22
11 36 -5 30 -13 -3 -13 -1 2 11 15 12 16 16 5 16 -12 0 -12 2 1 10 13 9 13 10
0 10 -13 0 -13 1 0 10 13 9 13 10 0 10 -13 0 -13 1 0 10 13 9 13 10 0 10 -13
0 -13 1 0 10 13 9 13 10 0 10 -13 0 -13 1 0 10 13 9 13 10 0 10 -13 0 -13 1 0
10 13 9 13 10 0 10 -13 0 -13 1 0 10 13 9 13 10 0 10 -13 0 -13 1 0 10 13 9
13 10 0 10 -13 0 -13 1 0 10 13 9 13 10 0 10 -13 0 -13 1 0 10 13 9 13 10 0
10 -13 0 -13 1 0 10 13 9 13 10 0 10 -13 0 -13 1 0 10 13 9 13 10 0 10 -13 0
-13 1 0 10 13 9 13 10 0 10 -13 0 -13 1 0 10 11 7 12 10 2 10 -10 0 -10 4 2
16 20 19 21 31 2 15 -11 -10 -14 -9 -12 1 1 7 6 19 10 27 7 11 6 12 -5 6 -12
-8 -12 -6 0 8 7 9 9 17 4 17 -5 0 -10 7 -10 15 0 8 5 15 11 15 6 0 4 5 -4 10
-13 9 -13 10 0 10 13 0 13 1 0 10 -8 5 -10 10 -4 10 6 0 11 7 11 15 0 8 -5 15
-10 15 -5 0 -3 8 4 17 12 15 12 16 -1 8 -13 -7 -13 -6 -2 7 11 14 10 18 -5 27
-16 9 -16 10 -1 11 9 0 20 5 23 10 4 6 2 9 -3 8 -8 -3 -14 5 -11 15 6 20 5 38
-2 43 -6 4 -6 11 1 19 8 10 8 15 0 20 -8 5 -8 11 1 21 9 11 8 14 -2 14 -11 0
-11 2 1 10 11 7 11 10 2 10 -8 0 -10 5 -5 13 12 20 12 38 0 30 -7 -4 -4 5 6
20 12 18 13 25 4 21 -8 -3 -14 2 -14 11 0 8 3 15 7 15 4 0 7 7 7 15 0 8 -7 15
-16 15 -11 0 -10 3 5 15 14 11 15 14 4 15 -13 0 -13 1 0 10 13 9 13 10 0 10
-13 0 -13 1 0 10 12 8 12 10 1 10 -11 0 -9 5 5 21 10 11 14 20 9 19 -22 -5
-27 1 -14 17 12 15 12 16 -1 8 -13 -8 -13 -7 -1 8 7 9 9 17 4 17 -5 0 -10 7
-10 15 0 8 5 15 11 15 6 0 4 5 -4 10 -13 9 -13 10 0 10 13 0 13 1 0 10 -8 5
-10 10 -4 10 6 0 11 7 11 15 0 8 -5 15 -10 15 -5 0 -3 8 4 17 12 15 12 16 -1
8 -13 -7 -13 -6 -2 7 11 14 10 18 -5 27 -16 9 -16 10 -1 11 9 0 20 5 23 10 4
6 2 9 -3 8 -8 -3 -14 5 -11 15 6 20 5 38 -2 43 -6 4 -6 11 1 19 8 10 8 15 0
20 -8 5 -8 11 1 21 9 11 8 14 -2 14 -11 0 -11 2 1 10 11 7 11 10 2 10 -8 0
-10 5 -5 13 12 20 12 38 0 30 -7 -4 -4 5 6 20 12 18 13 25 4 21 -8 -3 -14 2
-14 11 0 8 3 15 7 15 4 0 7 7 7 15 0 8 -7 15 -16 15 -11 0 -10 3 5 15 14 11
15 14 4 15 -13 0 -13 1 0 10 13 9 13 10 0 10 -13 0 -13 1 0 10 8 5 10 10 4 10
-6 0 -11 7 -11 15 0 8 5 15 11 15 6 0 4 5 -4 10 -13 9 -13 10 0 10 13 0 13 1
0 10 -13 9 -13 10 0 10 13 0 13 1 0 10 -13 9 -13 10 0 10 13 0 13 1 0 10 -13
9 -13 10 0 10 13 0 13 1 0 10 -13 9 -13 10 0 10 13 0 13 1 0 10 -13 9 -13 10
0 10 13 0 13 1 0 10 -13 9 -13 10 0 10 13 0 13 1 0 10 -13 9 -13 10 0 10 13 0
13 1 0 10 -13 9 -13 10 0 10 13 0 13 1 0 10 -13 9 -13 10 0 10 13 0 13 1 0 10
-13 9 -13 10 0 10 13 0 13 1 0 10 -13 9 -13 10 0 10 13 0 13 1 0 10 -13 9 -13
10 0 10 13 0 13 1 0 10 -13 9 -13 10 0 10 13 0 13 1 0 10 -8 5 -10 10 -4 10 7
0 15 7 18 16 5 14 4 15 -8 5 -11 -10 -14 -9 -12 1 1 7 5 19 9 26 5 7 3 12 -5
12 -9 0 -9 3 2 10 8 5 10 10 4 10 -6 0 -11 7 -11 15 0 8 5 15 11 15 6 0 4 5
-4 10 -10 6 -11 10 -3 10 17 0 12 23 -7 32 -12 5 -11 7 4 7 15 1 16 4 6 16
-10 12 -10 15 1 15 12 0 12 2 0 9 -11 7 -11 9 0 14 12 4 12 6 0 6 -11 1 -10 6
5 22 10 11 14 20 9 19 -22 -5 -27 1 -15 15 10 12 10 15 -1 15 -11 0 -11 2 1
10 8 5 10 10 4 10 -6 0 -11 7 -11 15 0 8 5 15 11 15 6 0 4 5 -4 10 -10 6 -11
10 -3 10 17 0 12 23 -7 32 -12 5 -11 7 4 7 15 1 16 4 6 16 -10 12 -10 15 1 15
12 0 12 2 0 9 -11 7 -11 9 0 14 12 4 12 6 0 6 -11 1 -10 6 5 22 10 11 14 20 9
19 -22 -5 -27 1 -15 15 10 12 10 15 -1 15 -11 0 -11 2 1 10 13 9 13 10 0 10
-13 0 -13 1 0 10 13 9 13 10 0 10 -13 0 -13 1 0 10 12 8 12 10 1 10 -11 0 -11
3 0 17 8 9 9 14 2 10 -7 -5 -9 0 -6 14 4 16 8 17 14 7 7 -10 9 -10 9 0 0 9 6
10 18 4 20 -10 32 -10 50 1 7 5 12 3 12 -5 0 -9 3 -9 10 2 9 13 10 13 10 0 0
-13 1 -13 10 0 9 13 10 13 10 0 1 -11 4 -10 15 4 12 15 15 16 15 5 0 -9 7 -16
15 -16 8 0 15 3 15 7 0 4 7 7 15 7 9 0 14 -6 11 -14 -4 -10 0 -10 18 2 12 8
26 12 30 8 13 -13 44 -10 39 4 -3 7 0 13 7 13 10 0 10 3 1 14 -9 10 -9 16 -1
21 8 5 8 11 1 19 -7 9 -7 17 2 26 10 10 9 11 -3 5 -13 -8 -13 -7 -1 8 11 14
11 17 0 17 -11 0 -11 2 1 10 13 9 13 10 0 10 -13 0 -13 1 0 10 12 8 12 10 1
10 -11 0 -11 3 0 17 12 15 12 16 -1 8 -13 -7 -13 -6 -2 7 11 14 10 18 -5 27
-16 9 -16 10 -1 11 9 0 20 5 23 10 4 6 3 9 -2 8 -7 -3 -15 7 -12 15 6 20 5 38
-2 43 -6 3 -5 12 3 22 11 13 11 14 -2 7 -13 -8 -13 -7 -1 8 11 14 11 17 0 17
-11 0 -11 2 1 10 13 9 13 10 0 10 -13 0 -13 1 0 10 12 8 12 10 1 10 -11 0 -11
3 0 17 12 15 12 16 -1 8 -13 -7 -13 -6 -2 7 11 14 10 18 -5 27 -16 9 -16 10
-1 11 9 0 20 5 24 12 4 6 3 8 -4 4 -6 -3 -13 -2 -16 3 -4 5 -2 12 2 15 9 5 8
62 -2 104 -4 18 -2 22 9 18 8 -3 15 -1 15 4 0 12 22 9 32 -5 5 -6 8 -4 8 5 0
13 1 13 10 0 8 -12 10 -12 10 -1 0 11 3 11 17 0 15 -12 16 -12 8 1 -8 13 -7
13 8 1 14 -11 17 -11 17 0 0 11 2 11 10 -1 7 -11 10 -11 10 -2 0 8 5 10 13 5
18 -11 36 -12 43 -2 3 5 10 7 15 3 5 -3 6 -10 3 -16 -4 -7 -2 -8 4 -4 7 4 12
15 12 24 1 15 2 15 11 -1 9 -15 13 -16 27 -5 13 11 14 11 7 -2 -8 -13 -7 -13
8 -1 12 9 17 10 17 2 0 -7 5 -9 13 -4 17 10 38 13 32 4 -6 -10 36 -8 53 2 11
8 16 2 13 -16 -1 -5 3 -6 9 -2 6 3 7 11 4 17 -4 6 1 6 14 -1 15 -8 23 -8 28 0
4 8 9 7 15 -2 7 -11 9 -11 9 1 0 13 1 13 10 0 5 -8 10 -10 10 -5 0 6 15 10 34
10 19 0 32 -3 30 -7 -5 -8 17 -5 33 5 6 4 14 1 16 -5 4 -10 8 -9 16 2 10 13
11 13 11 0 0 -13 1 -13 10 0 9 13 10 13 10 0 0 -13 1 -13 10 0 9 13 10 13 10
0 0 -13 1 -13 10 0 9 13 10 13 10 0 0 -13 1 -13 10 0 9 13 10 13 10 0 0 -13 1
-13 10 0 9 13 10 13 10 0 0 -13 1 -13 10 0 9 13 10 13 10 0 0 -13 1 -13 10 0
9 13 10 13 10 0 0 -12 2 -13 9 -1 7 11 9 11 14 0 4 -11 6 -11 6 -1 1 8 6 10
14 5 16 -10 58 -12 52 -2 -6 9 15 6 33 -4 12 -8 16 -2 13 17 -1 5 4 4 11 -2
11 -8 14 -7 14 8 0 10 -5 16 -11 12 -5 -3 -4 2 4 11 13 16 9 21 -14 18 -5 -1
1 8 15 19 14 11 21 19 15 18 -8 -3 -17 6 -14 15 6 21 5 38 -3 43 -6 4 -5 10 3
15 12 7 12 9 0 9 -11 0 -10 5 4 20 17 19 17 20 2 14 -19 -7 -20 15 -2 28 6 5
4 8 -5 8 -13 0 -13 1 0 10 12 8 12 10 1 10 -10 0 -11 3 -2 14 10 11 8 17 -6
26 -16 10 -16 11 0 6 9 -3 17 -1 17 4 0 6 -5 10 -11 10 -6 0 -7 5 -2 13 10 16
13 38 5 33 -4 -2 -7 11 -7 30 0 19 5 34 10 34 6 0 3 5 -5 10 -13 9 -13 10 0
10 12 0 12 2 1 9 -9 6 -10 11 -2 15 8 5 8 13 0 28 -7 13 -7 18 -1 14 6 -3 14
-2 17 4 4 6 3 9 -2 8 -7 -3 -15 7 -12 15 5 13 4 55 -2 52 -9 -6 -6 15 4 33 5
7 3 12 -4 12 -8 0 -7 5 2 17 12 15 12 16 -1 8 -13 -7 -13 -6 -2 7 11 14 10 18
-5 27 -16 9 -16 10 -1 11 9 0 20 5 23 10 4 6 3 9 -2 8 -7 -3 -15 7 -12 15 6
20 5 38 -2 43 -6 3 -5 12 3 22 11 13 11 14 -2 7 -13 -8 -13 -7 -1 8 11 14 11
17 0 17 -11 0 -11 2 1 10 10 6 11 10 3 10 -7 0 -13 5 -13 11 0 5 3 8 8 6 4 -3
7 8 7 23 1 16 -3 26 -8 23 -4 -3 -7 3 -5 12 3 19 -28 30 -38 14 -3 -6 -11 -5
-20 2 -11 9 -14 8 -14 -5 0 -14 -2 -15 -14 -4 -8 7 -12 18 -9 23 2 6 -2 2 -10
-7 -8 -10 -17 -15 -21 -11 -10 10 -66 11 -72 1 -8 -13 -25 2 -17 15 3 7 -3 3
-15 -7 -17 -14 -22 -16 -22 -5 0 11 -2 11 -10 -1 -8 -12 -10 -12 -10 -1 0 10
-3 11 -14 2 -11 -9 -15 -9 -19 1 -4 10 -8 10 -16 -2 -10 -13 -11 -13 -11 0 0
13 -1 13 -10 0 -9 -13 -10 -13 -10 0 0 13 -1 13 -10 0 -9 -13 -10 -13 -10 0 0
13 -1 13 -10 0 -9 -13 -10 -13 -10 0 0 13 -1 13 -10 0 -9 -13 -10 -13 -10 0 0
13 -1 13 -10 0 -9 -13 -10 -13 -10 0 0 13 -1 13 -10 0 -9 -13 -10 -13 -10 0 0
13 -1 13 -10 0 -9 -13 -10 -13 -10 0 0 13 -1 13 -10 0 -9 -13 -10 -13 -10 0 0
13 -1 13 -10 0 -9 -13 -10 -13 -10 0 0 13 -1 13 -10 0 -9 -13 -10 -13 -10 0 0
13 -1 13 -10 0 -9 -13 -10 -13 -10 0 0 13 -1 13 -10 0 -9 -13 -10 -13 -10 0 0
13 -1 13 -10 0 -9 -13 -10 -13 -10 0 0 13 -1 13 -10 0 -9 -13 -10 -13 -10 0 0
13 -1 13 -10 0 -9 -13 -10 -13 -10 0 0 13 -1 13 -10 0 -9 -13 -10 -13 -10 0 0
13 -1 13 -10 0 -9 -13 -10 -13 -10 0 0 13 -1 13 -10 0 -9 -13 -10 -13 -10 0 0
13 -1 13 -10 0 -9 -13 -10 -13 -10 0 0 13 -1 13 -10 0 -9 -13 -10 -13 -10 0 0
13 -1 13 -10 0 -9 -13 -10 -13 -10 0 0 13 -1 13 -10 0 -9 -13 -10 -13 -10 0 0
13 -1 13 -10 0 -9 -13 -10 -13 -10 0 0 13 -1 13 -10 0 -9 -13 -10 -13 -10 0 0
13 -1 13 -10 0 -9 -13 -10 -13 -10 0 0 13 -1 13 -10 0 -9 -13 -10 -13 -10 0 0
13 -1 13 -10 0 -9 -13 -10 -13 -10 0 0 13 -1 13 -10 0 -9 -13 -10 -13 -10 0 0
13 -1 13 -10 0 -9 -13 -10 -13 -10 0 0 13 -1 13 -10 0 -9 -13 -10 -13 -10 0 0
9 -3 11 -8 5 -11 -15 -32 -17 -32 -2 0 8 -4 7 -10 -3 -9 -13 -10 -13 -10 0 0
13 -1 13 -10 0 -9 -13 -10 -13 -10 0 -1 11 -4 10 -15 -4 -12 -15 -15 -16 -15
-5 0 9 -7 16 -15 16 -8 0 -15 -3 -15 -7 0 -4 -7 -7 -15 -7 -10 0 -14 6 -10 16
4 13 3 13 -8 -1 -11 -14 -16 -15 -27 -5 -10 10 -11 9 -5 -3 8 -13 7 -13 -8 -1
-13 10 -17 10 -17 1 0 -8 -4 -9 -12 -3 -19 14 -88 9 -99 -8 -7 -12 -9 -11 -9
2 0 9 -7 16 -15 16 -8 0 -15 -3 -15 -7 0 -4 -7 -7 -15 -7 -10 0 -14 6 -10 16
4 13 3 13 -8 -1 -11 -14 -16 -15 -27 -5 -10 10 -11 9 -5 -3 8 -13 6 -13 -7 -2
-13 10 -17 10 -21 0 -4 -10 -8 -10 -16 2 -10 13 -11 13 -11 0 0 -12 -2 -12 -9
-1 -6 9 -10 10 -16 2 -5 -9 -10 -9 -20 -1 -10 8 -15 8 -20 -1 -6 -8 -10 -7
-16 2 -7 12 -9 12 -9 0 0 -11 -3 -11 -15 -1 -8 7 -15 8 -15 3 0 -5 -7 -10 -15
-10 -8 0 -15 7 -15 14 0 8 -4 12 -8 9 -5 -3 -9 1 -9 9 0 8 4 12 8 10 9 -6 6
22 -4 31 -4 4 1 13 11 21 9 8 13 12 7 10 -5 -3 -16 1 -23 9 -11 12 -10 14 5
14 15 0 16 2 3 10 -11 7 -11 10 -2 10 10 0 10 5 2 20 -8 15 -8 20 2 20 9 0 9
3 -2 10 -10 6 -11 10 -3 10 17 0 12 23 -7 32 -12 5 -11 7 4 7 15 1 16 4 6 16
-10 12 -10 15 1 15 12 0 12 2 0 9 -11 7 -11 9 0 14 12 4 12 6 0 6 -11 1 -10 6
5 22 10 11 14 20 9 19 -22 -5 -27 1 -15 15 10 12 10 15 -1 15 -11 0 -11 2 1
10 8 5 10 10 4 10 -6 0 -11 7 -11 15 0 8 5 15 11 15 6 0 4 5 -4 10 -10 6 -11
10 -3 10 17 0 12 23 -7 32 -12 5 -11 7 4 7 15 1 16 4 6 16 -10 12 -10 15 1 15
12 0 12 2 0 9 -11 7 -11 9 0 14 12 4 12 6 0 6 -11 1 -10 6 5 22 10 11 14 20 9
19 -22 -5 -27 1 -15 15 10 12 10 15 -1 15 -11 0 -11 2 1 10 8 5 10 10 4 10 -6
0 -11 7 -11 15 0 8 5 15 11 15 6 0 4 5 -4 10 -10 6 -11 10 -3 10 17 0 12 23
-7 32 -12 5 -11 7 4 7 15 1 16 4 6 16 -10 12 -10 15 1 15 12 0 12 2 0 9 -11 7
-11 9 0 14 12 4 12 6 0 6 -11 1 -10 6 5 22 10 11 14 20 9 19 -22 -5 -27 1 -15
15 10 12 10 15 -1 15 -11 0 -11 2 1 10 8 5 10 10 4 10 -6 0 -11 7 -11 15 0 8
5 15 11 15 6 0 4 5 -4 10 -10 6 -11 10 -3 10 17 0 12 23 -7 32 -12 5 -11 7 4
7 15 1 16 4 6 16 -10 12 -10 15 1 15 12 0 12 2 0 9 -11 7 -11 9 0 14 12 4 12
6 0 6 -11 1 -10 6 5 22 10 11 14 20 9 19 -22 -5 -27 1 -15 15 10 12 10 15 -1
15 -11 0 -11 2 1 10 8 5 10 10 4 10 -6 0 -11 7 -11 15 0 8 5 15 11 15 6 0 4 5
-4 10 -10 6 -11 10 -3 10 17 0 12 23 -7 32 -12 5 -11 7 4 7 15 1 16 4 6 16 -7
8 -8 15 -3 15 5 0 10 7 10 15 0 8 -4 15 -9 15 -5 0 -7 4 -3 9 3 5 0 13 -6 17
-8 4 -9 3 -5 -4 4 -7 3 -12 -3 -12 -5 0 -12 6 -14 13 -4 9 -6 8 -6 -2 -1 -11
-4 -11 -16 -1 -10 9 -15 9 -15 1 0 -6 -5 -11 -11 -11 -5 0 -8 4 -5 8 3 5 -1 9
-9 9 -8 0 -11 -5 -8 -11 4 -6 -1 -5 -10 3 -13 10 -17 10 -17 1 0 -8 -4 -9 -12
-3 -18 14 -83 9 -102 -7 -14 -11 -16 -11 -11 2 4 9 0 15 -10 15 -8 0 -15 -3
-15 -7 0 -4 -7 -7 -15 -7 -10 0 -14 6 -10 16 4 11 1 10 -15 -4 -15 -14 -20
-15 -20 -4 0 12 -2 12 -9 0 -7 -11 -9 -11 -14 0 -4 11 -6 11 -6 1 -1 -8 -6
-10 -13 -5 -18 11 -39 13 -33 3 6 -10 -15 -8 -32 3 -7 5 -13 4 -13 -1 0 -5 -7
-9 -15 -9 -8 0 -15 5 -15 11 0 6 -5 4 -10 -4 -9 -13 -10 -13 -10 0 0 9 -3 11
-8 5 -8 -11 -73 -15 -66 -4 5 9 -17 6 -33 -4 -6 -4 -14 -1 -16 5 -4 10 -8 9
-16 -2 -10 -13 -11 -13 -11 0 0 13 -1 13 -10 0 -9 -13 -10 -13 -10 0 0 13 -1
13 -10 0 -9 -13 -10 -13 -10 0 0 13 -1 13 -10 0 -9 -13 -10 -13 -10 0 0 13 -1
13 -10 0 -9 -13 -10 -13 -10 0 0 13 -1 13 -10 0 -9 -13 -10 -13 -10 0 0 13 -1
13 -10 0 -9 -13 -10 -13 -10 0 0 13 -1 13 -10 0 -9 -13 -10 -13 -10 0 0 13 -1
13 -10 0 -9 -13 -10 -13 -10 0 0 13 -1 13 -10 0 -9 -13 -10 -13 -10 0 0 13 -1
13 -10 0 -9 -13 -10 -13 -10 0 0 13 -1 13 -10 0 -9 -13 -10 -13 -10 0 0 13 -1
13 -10 0 -9 -13 -10 -13 -10 0 0 13 -1 13 -10 0 -9 -13 -10 -13 -10 0 0 13 -1
13 -10 0 -9 -13 -10 -13 -10 0 0 13 -1 13 -10 0 -9 -13 -10 -13 -10 0 0 13 -1
13 -10 0 -9 -13 -10 -13 -10 0 0 13 -1 13 -10 0 -9 -13 -10 -13 -10 0 0 13 -1
13 -10 0 -9 -13 -10 -13 -10 0 0 13 -1 13 -10 0 -9 -13 -10 -13 -10 0 0 13 -1
13 -10 0 -9 -13 -10 -13 -10 0 0 13 -1 13 -10 0 -9 -13 -10 -13 -10 0 0 13 -1
13 -10 0 -9 -13 -10 -13 -10 0 0 13 -1 13 -10 0 -9 -13 -10 -13 -10 0 0 13 -1
13 -10 0 -9 -13 -10 -13 -10 0 0 13 -1 13 -10 0 -9 -13 -10 -13 -10 0 0 13 -1
13 -10 0 -9 -13 -10 -13 -10 0 0 13 -1 13 -10 0 -9 -13 -10 -13 -10 0 0 13 -1
13 -10 0 -9 -13 -10 -13 -10 0 0 13 -1 13 -10 0 -9 -13 -10 -13 -10 0 0 13 -1
13 -10 0 -9 -13 -10 -13 -10 0 0 12 -2 12 -9 2 -11 -17 -21 -17 -32 0 -7 10
-9 10 -9 -2 0 -13 -1 -13 -10 0 -8 12 -10 12 -10 1 0 -11 -3 -11 -15 -1 -12
10 -15 9 -16 -6 0 -15 -2 -16 -7 -4 -9 19 -32 24 -32 7 0 -8 -4 -7 -10 3 -5 8
-10 10 -10 4 0 -6 -7 -11 -15 -11 -8 0 -15 5 -15 11 0 6 -5 4 -10 -4 -8 -12
-10 -12 -10 -1 0 11 -3 11 -15 1 -14 -12 -20 -7 -15 15 1 5 -8 1 -19 -9 -16
-14 -21 -16 -21 -5 0 12 -2 12 -9 0 -7 -11 -9 -11 -14 0 -5 12 -6 12 -6 0 -1
-11 -4 -11 -16 -1 -12 10 -15 9 -16 -6 0 -15 -2 -16 -7 -4 -9 19 -32 24 -32 7
0 -8 -4 -7 -10 3 -5 8 -10 10 -10 4 0 -6 -7 -11 -15 -11 -8 0 -15 5 -15 11 0
6 -5 4 -10 -4 -8 -12 -10 -12 -10 -1 0 11 -3 11 -15 1 -14 -12 -20 -7 -15 15
1 5 -8 1 -19 -9 -16 -14 -21 -16 -21 -5 0 12 -2 12 -9 0 -7 -11 -9 -11 -14 0
-5 12 -6 12 -6 0 -1 -11 -4 -11 -16 -1 -12 10 -15 9 -16 -6 0 -15 -2 -16 -7
-4 -9 19 -32 24 -32 7 0 -8 -4 -7 -10 3 -5 8 -10 10 -10 4 0 -6 -7 -11 -15
-11 -8 0 -15 5 -15 11 0 6 -5 4 -10 -4 -8 -12 -10 -12 -10 -1 0 11 -3 11 -15
1 -14 -12 -20 -7 -15 15 1 5 -8 1 -19 -9 -16 -14 -21 -16 -21 -5 0 12 -2 12
-9 0 -7 -11 -9 -11 -14 0 -5 12 -6 12 -6 0 -1 -11 -4 -11 -16 -1 -12 10 -15 9
-16 -6 0 -15 -2 -16 -7 -4 -9 19 -32 24 -32 7 0 -8 -4 -7 -10 3 -5 8 -10 10
-10 4 0 -6 -7 -11 -15 -11 -8 0 -15 5 -15 11 0 6 -5 4 -10 -4 -8 -12 -10 -12
-10 -1 0 11 -3 11 -15 1 -14 -12 -20 -7 -15 15 1 5 -8 1 -19 -9 -16 -14 -21
-16 -21 -5 0 12 -2 12 -9 0 -7 -11 -9 -11 -14 0 -5 12 -6 12 -6 0 -1 -11 -4
-11 -16 -1 -12 10 -15 9 -16 -6 0 -15 -2 -16 -7 -4 -9 19 -32 24 -32 8 0 -9
-4 -8 -10 2 -7 11 -10 11 -10 2 0 -7 -4 -10 -10 -7 -19 11 -50 14 -55 4 -9
-14 -27 0 -18 14 3 7 -3 3 -15 -7 -17 -14 -22 -16 -22 -5 0 11 -2 11 -10 -1
-8 -12 -10 -12 -10 -1 0 10 -3 11 -14 2 -11 -9 -15 -9 -19 1 -4 10 -8 10 -16
-2 -10 -13 -11 -13 -11 0 0 13 -1 13 -10 0 -9 -13 -10 -13 -10 0 0 13 -1 13
-10 0 -9 -13 -10 -13 -10 0 0 13 -1 13 -10 0 -9 -13 -10 -13 -10 0 0 13 -1 13
-10 0 -9 -13 -10 -13 -10 0 0 13 -1 13 -10 0 -9 -13 -10 -13 -10 0 0 13 -1 13
-10 0 -9 -13 -10 -13 -10 0 0 13 -1 13 -10 0 -9 -13 -10 -13 -10 0 0 13 -1 13
-10 0 -9 -13 -10 -13 -10 0 0 13 -1 13 -10 0 -9 -13 -10 -13 -10 0 0 13 -1 13
-10 0 -9 -13 -10 -13 -10 0 0 13 -1 13 -10 0 -9 -13 -10 -13 -10 0 0 13 -1 13
-10 0 -9 -13 -10 -13 -10 0 0 13 -1 13 -10 0 -9 -13 -10 -13 -10 0 0 13 -1 13
-10 0 -9 -13 -10 -13 -10 0 0 13 -1 13 -10 0 -9 -13 -10 -13 -10 0 0 13 -1 13
-10 0 -9 -13 -10 -13 -10 0 0 13 -1 13 -10 0 -9 -13 -10 -13 -10 0 0 13 -1 13
-10 0 -9 -13 -10 -13 -10 0 0 13 -1 13 -10 0 -9 -13 -10 -13 -10 0 0 13 -1 13
-10 0 -9 -13 -10 -13 -10 0 0 13 -1 13 -10 0 -9 -13 -10 -13 -10 0 0 13 -1 13
-10 0 -9 -13 -10 -13 -10 0 0 13 -1 13 -10 0 -9 -13 -10 -13 -10 0 0 13 -1 13
-10 0 -9 -13 -10 -13 -10 0 0 13 -1 13 -10 0 -9 -13 -10 -13 -10 0 0 13 -1 13
-10 0 -9 -13 -10 -13 -10 0 0 13 -1 13 -10 0 -9 -13 -10 -13 -10 0 0 13 -1 13
-10 0 -9 -13 -10 -13 -10 0 0 13 -1 13 -10 0 -9 -13 -10 -13 -10 0 0 13 -1 13
-10 0 -8 -13 -10 -13 -10 -1 0 11 -4 10 -16 -5 -12 -15 -14 -15 -11 -2 6 16
-8 19 -30 5 -8 -5 -13 -3 -13 5 0 9 -3 9 -10 -2 -9 -13 -10 -13 -10 0 0 9 -3
11 -8 5 -13 -18 -35 -17 -28 2 6 15 5 15 -14 -2 -15 -14 -20 -15 -20 -4 0 12
-2 12 -9 0 -5 -8 -11 -9 -15 -3 -7 11 -24 11 -43 -1 -12 -8 -17 -2 -14 16 1 5
-3 6 -9 2 -5 -3 -10 -14 -10 -23 -1 -15 -2 -15 -11 1 -9 15 -13 16 -27 5 -13
-11 -14 -11 -7 2 8 13 7 13 -8 1 -14 -11 -17 -11 -17 0 0 11 -2 11 -10 -1 -9
-13 -10 -13 -10 0 0 13 -1 13 -10 0 -8 -12 -10 -12 -10 -1 0 11 -3 11 -17 0
-15 -12 -16 -12 -8 1 7 13 6 13 -7 2 -10 -8 -19 -9 -22 -3 -7 10 -25 9 -43 -2
-12 -8 -17 -2 -14 16 1 5 -3 6 -9 2 -5 -3 -10 -14 -10 -23 -1 -15 -2 -15 -11
1 -9 15 -13 16 -27 5 -13 -11 -14 -11 -7 2 8 13 7 13 -8 1 -12 -9 -17 -10 -17
-2 0 7 -5 9 -12 4 -18 -11 -39 -13 -33 -3 3 5 -4 7 -16 5 -13 -3 -26 -10 -31
-17 -6 -10 -8 -9 -8 3 0 9 -7 16 -15 16 -8 0 -15 -3 -15 -7 0 -4 -7 -7 -15 -7
-10 0 -14 6 -10 16 4 13 3 13 -8 -1 -11 -14 -16 -15 -27 -5 -10 10 -11 9 -5
-3 8 -13 7 -13 -8 -1 -13 10 -17 10 -17 1 0 -8 -4 -9 -12 -3 -19 14 -88 9 -99
-8 -7 -12 -9 -11 -9 2 0 9 -7 16 -15 16 -8 0 -15 -3 -15 -7 0 -4 -7 -7 -15 -7
-10 0 -14 6 -10 16 4 11 1 10 -15 -4 -15 -14 -20 -15 -20 -4 0 12 -2 12 -9 0
-7 -11 -9 -11 -14 0 -4 11 -6 11 -6 1 -1 -8 -6 -10 -13 -5 -18 11 -39 13 -33
3 6 -10 -15 -8 -32 3 -7 5 -13 4 -13 -1 0 -5 -7 -9 -15 -9 -8 0 -15 5 -15 11
0 6 -5 4 -10 -4 -9 -13 -10 -13 -10 0 0 9 -3 11 -8 5 -8 -11 -73 -15 -66 -4 5
9 -17 6 -33 -4 -6 -4 -14 -1 -16 5 -4 10 -8 9 -16 -2 -10 -13 -11 -13 -11 0 0
13 -1 13 -10 0 -9 -13 -10 -13 -10 0 0 13 -1 13 -10 0 -9 -13 -10 -13 -10 0 0
13 -1 13 -10 0 -9 -13 -10 -13 -10 0 0 13 -1 13 -10 0 -9 -13 -10 -13 -10 0 0
13 -1 13 -10 0 -9 -13 -10 -13 -10 0 0 13 -1 13 -10 0 -9 -13 -10 -13 -10 0 0
13 -1 13 -10 0 -9 -13 -10 -13 -10 0 0 13 -1 13 -10 0 -9 -13 -10 -13 -10 0 0
13 -1 13 -10 0 -9 -13 -10 -13 -10 0 0 13 -1 13 -10 0 -9 -13 -10 -13 -10 0 0
13 -1 13 -10 0 -9 -13 -10 -13 -10 0 0 13 -1 13 -10 0 -9 -13 -10 -13 -10 0 0
13 -1 13 -10 0 -9 -13 -10 -13 -10 0 0 13 -1 13 -10 0 -9 -13 -10 -13 -10 0 0
13 -1 13 -10 0 -9 -13 -10 -13 -10 0 0 13 -1 13 -10 0 -9 -13 -10 -13 -10 0 0
13 -1 13 -10 0 -9 -13 -10 -13 -10 0 0 13 -1 13 -10 0 -9 -13 -10 -13 -10 0 0
13 -1 13 -10 0 -9 -13 -10 -13 -10 0 0 13 -1 13 -10 0 -9 -13 -10 -13 -10 0 0
13 -1 13 -10 0 -9 -13 -10 -13 -10 0 0 13 -1 13 -10 0 -9 -13 -10 -13 -10 0 0
13 -1 13 -10 0 -9 -13 -10 -13 -10 0 0 13 -1 13 -10 0 -9 -13 -10 -13 -10 0 0
13 -1 13 -10 0 -9 -13 -10 -13 -10 0 0 13 -1 13 -10 0 -9 -13 -10 -13 -10 0 0
13 -1 13 -10 0 -9 -13 -10 -13 -10 0 0 13 -1 13 -10 0 -9 -13 -10 -13 -10 0 0
13 -1 13 -10 0 -9 -13 -10 -13 -10 0 0 13 -1 13 -10 0 -9 -13 -10 -13 -10 0 0
12 -2 12 -9 2 -4 -8 -12 -14 -16 -14 -4 0 -12 6 -16 14 -7 10 -9 10 -9 -2 0
-13 -1 -13 -10 0 -8 12 -10 12 -10 1 0 -11 -3 -11 -15 -1 -12 10 -15 9 -16 -6
0 -15 -2 -16 -7 -4 -9 19 -32 24 -32 8 0 -9 -4 -8 -10 2 -5 8 -10 10 -10 4 0
-6 -7 -11 -15 -11 -8 0 -15 5 -15 11 0 6 -5 4 -10 -4 -8 -12 -10 -12 -10 -1 0
11 -3 11 -15 1 -14 -11 -19 -7 -16 13 2 11 -3 9 -22 -10z"/>
<path d="M659 4485 c-1 -5 -1 -13 0 -17 0 -5 -3 -7 -8 -5 -8 2 -13 -6 -10 -15
6 -20 6 -37 0 -33 -10 6 -8 -36 2 -52 5 -8 3 -13 -5 -13 -9 0 -9 -3 2 -10 13
-9 13 -10 0 -10 -13 0 -13 -1 0 -10 13 -9 13 -10 0 -10 -13 0 -13 -1 0 -10 13
-9 13 -10 0 -10 -13 0 -13 -1 0 -10 13 -9 13 -10 0 -10 -13 0 -13 -1 0 -10 13
-9 13 -10 0 -10 -13 0 -13 -1 0 -10 13 -9 13 -10 0 -10 -13 0 -13 -1 0 -10 13
-9 13 -10 0 -10 -13 0 -13 -1 0 -10 10 -7 11 -10 2 -10 -10 0 -10 -4 0 -20 9
-14 14 -16 20 -7 6 9 8 9 8 -2 0 -11 3 -11 15 -1 12 10 15 10 15 -1 0 -11 2
-11 10 1 9 13 10 13 10 0 0 -12 2 -13 9 -1 7 11 9 11 14 0 4 -11 6 -11 6 1 1
13 2 13 11 0 8 -12 10 -12 10 -1 0 11 3 11 15 1 12 -10 15 -9 16 6 0 15 2 16
7 4 9 -19 32 -24 32 -7 0 8 4 7 10 -3 8 -12 10 -12 10 -1 0 11 3 11 15 1 12
-10 15 -10 15 0 0 10 3 10 14 1 11 -9 15 -9 19 1 4 10 6 10 6 1 1 -7 6 -13 12
-13 5 0 8 4 5 8 -3 5 1 9 9 9 18 0 19 -9 3 -25 -9 -9 -9 -12 1 -12 10 0 11 -3
2 -14 -9 -10 -9 -16 -1 -21 8 -5 5 -12 -7 -21 -12 -10 -13 -12 -3 -9 11 4 16
-1 16 -14 0 -11 -3 -18 -7 -15 -9 5 -6 -17 4 -32 3 -6 3 -14 -1 -18 -10 -10
-9 -125 1 -119 5 3 7 -3 5 -12 -3 -19 28 -30 38 -14 3 6 11 5 20 -2 11 -9 14
-8 15 7 0 15 2 16 7 4 8 -16 32 -25 32 -12 0 5 7 9 15 9 10 0 14 -6 10 -16 -4
-11 -1 -10 15 4 15 14 20 15 20 4 0 -12 2 -12 9 0 7 11 9 11 14 0 5 -12 6 -12
6 0 1 11 4 11 16 1 12 -10 15 -10 15 1 0 11 2 11 10 -1 9 -13 10 -13 10 0 0 9
3 11 8 5 10 -14 32 -17 32 -4 0 5 4 8 9 5 5 -3 12 1 15 10 4 10 2 13 -7 8 -8
-5 -7 -2 2 9 11 14 11 17 0 17 -11 0 -11 2 1 10 8 5 10 10 4 10 -14 0 -14 30
0 30 6 0 4 5 -4 10 -8 5 -10 10 -4 10 17 0 12 30 -5 31 -12 0 -11 3 4 9 11 5
14 9 6 9 -11 1 -11 4 -1 16 10 12 10 15 -1 15 -11 0 -11 2 1 10 13 9 13 10 0
10 -13 0 -13 1 0 10 13 9 13 10 0 10 -13 0 -13 1 0 10 12 8 12 10 1 10 -11 0
-11 3 -1 15 10 12 10 15 -1 15 -11 0 -11 2 -2 8 9 6 6 11 -8 21 -17 10 -20 10
-13 -1 6 -10 4 -10 -9 1 -14 11 -17 11 -17 0 0 -11 -2 -11 -10 1 -9 13 -10 13
-10 0 0 -13 -1 -13 -10 0 -9 13 -10 13 -10 0 0 -13 -1 -13 -10 0 -9 13 -10 13
-10 0 0 -13 -1 -13 -10 0 -9 13 -10 13 -10 0 0 -13 -1 -13 -10 0 -9 13 -10 13
-10 0 0 -13 -1 -13 -10 0 -9 13 -10 13 -10 0 0 -13 -1 -13 -10 0 -9 13 -10 13
-10 0 0 -13 -1 -13 -10 0 -9 13 -10 13 -10 0 0 -13 -1 -13 -10 0 -9 13 -10 13
-10 0 0 -13 -1 -13 -10 0 -9 13 -10 13 -10 0 0 -13 -1 -13 -10 0 -9 13 -10 13
-10 0 0 -13 -1 -13 -10 0 -8 12 -10 12 -10 1 0 -8 -8 -3 -20 12 -21 26 -26 42
-12 33 11 -6 9 34 -1 52 -5 7 -3 12 4 12 8 0 7 5 -2 17 -12 15 -12 16 1 8 12
-6 13 -5 3 5 -10 11 -9 16 5 27 14 11 14 12 1 8 -10 -4 -16 0 -16 10 0 8 3 15
7 15 4 0 7 7 7 15 0 8 -7 15 -16 15 -11 0 -10 3 5 15 14 11 15 14 4 15 -9 0
-11 3 -5 8 14 10 17 32 4 32 -5 0 -8 4 -4 9 3 5 0 13 -6 17 -8 4 -9 3 -5 -4 4
-7 3 -12 -3 -12 -5 0 -12 6 -14 13 -4 9 -6 8 -6 -2 -1 -11 -4 -11 -16 -1 -10
9 -15 9 -15 1 0 -6 -5 -11 -11 -11 -5 0 -8 4 -5 8 3 5 -1 9 -9 9 -8 0 -11 -5
-8 -11 4 -6 -1 -5 -10 3 -13 10 -17 10 -17 1 0 -8 -4 -9 -12 -3 -18 14 -83 9
-102 -7 -14 -11 -16 -11 -11 2 4 9 0 15 -10 15 -8 0 -15 -5 -15 -11 0 -6 -5
-4 -10 4 -5 8 -10 11 -11 5z"/>
<path d="M339 3845 c-1 -5 -1 -13 0 -17 0 -5 -3 -7 -8 -5 -8 2 -13 -6 -10 -15
6 -20 6 -37 0 -33 -10 6 -8 -36 2 -52 5 -8 3 -13 -5 -13 -9 0 -9 -3 2 -10 13
-9 13 -10 0 -10 -13 0 -13 -1 0 -10 13 -9 13 -10 0 -10 -13 0 -13 -1 0 -10 13
-9 13 -10 0 -10 -13 0 -13 -1 0 -10 13 -9 13 -10 0 -10 -13 0 -13 -1 0 -10 13
-9 13 -10 0 -10 -13 0 -13 -1 0 -10 13 -9 13 -10 0 -10 -13 0 -13 -1 0 -10 13
-9 13 -10 0 -10 -13 0 -13 -1 0 -10 10 -7 11 -10 2 -10 -10 0 -10 -4 0 -20 9
-14 14 -16 20 -7 6 9 8 9 8 -2 0 -10 3 -11 14 -2 10 9 16 9 21 1 5 -8 11 -8
21 1 13 11 19 5 14 -16 -1 -5 8 -1 19 9 16 15 21 16 21 5 1 -10 5 -8 15 5 12
15 15 16 15 5 0 -9 7 -16 15 -16 8 0 15 3 15 7 0 4 7 7 15 7 9 0 14 -6 11 -14
-4 -10 0 -10 18 2 12 8 26 12 30 8 13 -13 44 -10 39 4 -3 7 0 13 7 13 6 0 8 5
3 13 -11 17 -13 38 -3 32 10 -6 8 15 -3 33 -5 7 -3 12 4 12 8 0 7 5 -2 17 -12
15 -12 16 1 8 12 -6 13 -5 3 5 -10 11 -9 16 5 27 14 11 14 12 1 8 -10 -4 -16
0 -16 10 0 8 3 15 7 15 4 0 7 7 7 15 0 8 -7 15 -16 15 -11 0 -10 3 5 15 14 11
15 14 4 15 -9 0 -11 3 -5 8 14 10 17 32 4 32 -5 0 -8 4 -4 9 3 5 0 13 -6 17
-8 4 -9 3 -5 -4 4 -7 3 -12 -3 -12 -5 0 -12 6 -14 13 -4 9 -6 8 -6 -2 -1 -11
-4 -11 -16 -1 -10 9 -15 9 -15 1 0 -6 -5 -11 -11 -11 -5 0 -8 4 -5 8 3 5 -1 9
-9 9 -8 0 -11 -5 -8 -11 4 -6 -1 -5 -10 3 -13 10 -17 10 -17 1 0 -8 -4 -9 -12
-3 -18 14 -83 9 -102 -7 -14 -11 -16 -11 -11 2 4 9 0 15 -10 15 -8 0 -15 -5
-15 -11 0 -6 -5 -4 -10 4 -5 8 -10 11 -11 5z"/>
<path d="M972 3523 c-6 -2 -10 -9 -6 -14 3 -5 0 -9 -5 -9 -13 0 -10 -22 4 -32
6 -5 4 -8 -5 -8 -13 0 -13 -1 0 -10 12 -8 12 -10 1 -10 -11 0 -11 -3 -1 -15
10 -12 10 -15 -1 -15 -12 0 -12 -2 0 -9 11 -7 11 -9 0 -14 -12 -4 -12 -6 0 -6
11 -1 10 -6 -4 -21 -14 -16 -15 -19 -4 -15 10 4 16 0 16 -10 0 -8 -3 -15 -7
-15 -4 0 -7 -7 -7 -15 0 -8 7 -15 16 -15 11 0 10 -3 -5 -15 -14 -11 -15 -14
-4 -15 9 0 11 -3 5 -8 -14 -10 -17 -32 -4 -32 5 0 8 -4 4 -9 -3 -5 0 -13 6
-17 8 -4 9 -3 5 4 -4 7 -2 12 3 12 6 0 11 -6 11 -12 0 -9 4 -8 10 2 5 8 10 10
10 4 0 -6 7 -11 15 -11 8 0 12 4 9 9 -3 4 0 8 5 8 6 0 11 -6 11 -12 0 -9 4 -8
10 2 8 12 10 12 10 1 0 -11 3 -11 15 -1 14 12 20 7 15 -15 -1 -5 8 -1 19 9 16
14 21 16 21 5 0 -11 2 -11 10 1 9 13 10 13 10 0 0 -12 2 -12 9 -1 6 10 10 10
16 1 5 -8 11 -6 21 7 13 17 14 17 8 0 -7 -19 15 -21 28 -2 5 6 8 5 8 -3 0 -7
5 -10 10 -7 6 4 8 11 4 16 -3 5 -2 8 3 7 7 -3 15 7 12 15 -6 19 -6 36 0 32 10
-6 8 36 -2 53 -5 7 -3 12 5 12 9 0 9 3 -2 10 -13 9 -13 10 0 10 13 0 13 1 0
10 -13 9 -13 10 0 10 13 0 13 1 0 10 -13 9 -13 10 0 10 13 0 13 1 0 10 -13 9
-13 10 0 10 13 0 13 1 0 10 -13 9 -13 10 0 10 13 0 13 1 0 10 -13 9 -13 10 0
10 13 0 13 1 0 10 -12 8 -12 10 -1 10 11 0 11 3 0 17 -11 13 -11 15 -1 9 11
-7 11 -4 1 13 -10 14 -15 17 -21 8 -6 -9 -8 -9 -8 2 0 11 -3 11 -15 1 -12 -10
-15 -10 -15 1 0 11 -2 11 -10 -1 -9 -13 -10 -13 -10 0 0 13 -1 13 -10 0 -9
-13 -10 -13 -10 0 0 13 -1 13 -10 0 -8 -12 -10 -12 -10 -1 0 11 -3 11 -15 1
-12 -10 -15 -10 -16 1 0 8 -4 5 -9 -6 -6 -15 -9 -16 -9 -4 -1 17 -31 22 -31 5
0 -6 -5 -4 -10 4 -5 8 -10 10 -10 4 0 -6 -7 -11 -15 -11 -8 0 -15 5 -15 11 0
6 -5 4 -10 -4 -8 -12 -10 -12 -10 -1 0 11 -3 11 -17 0 -11 -10 -14 -10 -9 -1
8 13 7 13 -12 5z"/>
<path d="M396 2878 c-9 -13 -15 -18 -15 -13 3 23 -2 27 -18 14 -9 -8 -14 -9
-11 -4 4 6 -2 11 -12 11 -15 0 -16 -3 -8 -14 6 -7 7 -12 2 -10 -8 3 -16 -6
-13 -14 6 -20 6 -37 0 -33 -10 6 -8 -36 2 -52 5 -8 3 -13 -5 -13 -9 0 -9 -3 2
-10 13 -9 13 -10 0 -10 -13 0 -13 -1 0 -10 13 -9 13 -10 0 -10 -13 0 -13 -1 0
-10 13 -9 13 -10 0 -10 -13 0 -13 -1 0 -10 13 -9 13 -10 0 -10 -13 0 -13 -1 0
-10 13 -9 13 -10 0 -10 -13 0 -13 -1 0 -10 13 -9 13 -10 0 -10 -13 0 -13 -1 0
-10 12 -8 12 -10 1 -10 -11 0 -11 -3 0 -17 11 -13 11 -15 1 -9 -11 7 -11 4 -1
-13 10 -14 15 -17 21 -8 6 9 8 9 8 -1 0 -8 5 -10 13 -5 16 10 38 13 33 4 -3
-4 6 -7 19 -7 13 0 22 3 20 6 -2 3 5 6 16 6 12 0 18 -5 14 -14 -2 -7 0 -10 5
-7 6 3 10 14 10 23 1 15 2 15 11 -1 9 -15 13 -16 27 -5 13 11 14 11 7 -2 -8
-13 -7 -13 8 -1 14 11 17 11 17 0 0 -11 2 -11 10 1 9 13 10 13 10 0 0 -13 1
-13 10 0 8 12 10 12 10 1 0 -11 3 -11 17 0 11 9 14 10 9 2 -5 -9 -2 -11 8 -7
9 3 13 10 10 15 -3 5 -1 9 4 9 5 0 9 7 9 15 0 8 -5 15 -11 15 -6 0 -4 5 4 10
11 7 11 10 2 10 -7 0 -10 4 -7 10 10 17 14 51 5 45 -10 -6 -8 15 3 33 5 7 3
12 -4 12 -8 0 -7 5 2 17 12 15 12 16 -1 8 -13 -7 -13 -6 -2 7 11 14 10 18 -5
28 -13 8 -13 10 -2 7 9 -3 16 1 16 9 0 8 -5 14 -10 14 -6 0 -6 5 0 13 15 20 9
42 -11 39 -10 -2 -16 1 -13 5 3 5 -7 9 -23 8 -15 0 -26 -3 -23 -7 2 -5 -1 -8
-6 -8 -6 0 -11 6 -11 13 0 8 -4 7 -10 -3 -8 -12 -10 -12 -10 -1 0 11 -3 11
-17 0 -15 -12 -16 -12 -8 1 7 13 6 13 -7 2 -10 -8 -19 -9 -22 -3 -7 10 -25 9
-43 -2 -12 -8 -17 -2 -14 16 2 13 -6 7 -23 -15z"/>
</g>
</svg>
